<?xml version="1.0" standalone="no"?>
<!DOCTYPE svg PUBLIC "-//W3C//DTD SVG 20010904//EN"
 "http://www.w3.org/TR/2001/REC-SVG-20010904/DTD/svg10.dtd">
<svg version="1.0" xmlns="http://www.w3.org/2000/svg"
 width="1250.000000pt" height="313.000000pt" viewBox="0 0 1250.000000 313.000000"
 preserveAspectRatio="xMidYMid meet">

<g transform="translate(0.000000,313.000000) scale(0.100000,-0.100000)"
fill="#000000" stroke="none">
<path d="M829 2291 l-29 -29 0 -176 0 -176 -55 0 c-100 0 -155 -39 -155 -111
0 -24 8 -45 24 -62 27 -29 47 -36 126 -39 l55 -3 0 -295 c0 -287 1 -296 23
-346 27 -60 98 -133 162 -166 41 -21 61 -23 204 -26 174 -4 197 1 222 50 19
36 18 73 -3 105 -28 42 -70 53 -200 53 -140 0 -175 14 -192 77 -12 41 -15 414
-4 501 l6 53 151 -1 c83 -1 161 -1 172 0 12 0 36 13 53 29 59 55 33 148 -47
171 -20 5 -103 10 -184 10 l-148 0 0 155 c0 168 -9 209 -51 239 -38 27 -96 21
-130 -13z"/>
<path d="M3163 2305 c-65 -28 -63 -5 -63 -726 l0 -652 24 -32 c30 -39 74 -50
120 -31 49 20 66 66 66 173 l0 89 48 47 c26 26 52 47 57 47 6 0 91 -81 190
-180 117 -117 189 -181 207 -185 51 -12 113 33 119 85 5 52 -6 67 -181 245
-99 100 -180 186 -180 191 0 5 81 90 180 189 117 117 181 189 185 207 16 69
-62 141 -128 118 -20 -7 -120 -96 -262 -234 l-230 -224 -5 412 c-5 453 -3 436
-67 463 -39 16 -40 16 -80 -2z"/>
<path d="M9664 2290 c-33 -13 -64 -59 -64 -96 0 -41 40 -90 80 -99 78 -17 148
69 114 141 -25 53 -79 75 -130 54z"/>
<path d="M1847 1885 c-80 -30 -151 -98 -190 -182 -20 -44 -22 -66 -25 -287 -3
-157 0 -261 8 -300 20 -106 90 -190 197 -238 43 -20 69 -22 263 -26 320 -6
405 12 492 106 79 86 83 102 86 408 3 255 2 273 -18 327 -28 74 -101 149 -175
182 -55 25 -60 25 -328 24 -208 0 -281 -4 -310 -14z m585 -224 l33 -29 3 -233
c2 -128 0 -244 -3 -257 -3 -13 -18 -35 -32 -48 l-26 -24 -248 0 -249 0 -32 29
-33 29 -3 224 c-4 243 2 284 45 317 24 20 39 21 269 21 l244 0 32 -29z"/>
<path d="M4411 1889 c-71 -12 -127 -46 -184 -109 -75 -83 -78 -105 -75 -426 3
-270 4 -280 26 -324 35 -66 89 -119 157 -151 l60 -29 262 0 261 0 31 31 c42
42 43 95 2 141 l-29 33 -234 3 c-128 1 -244 5 -256 8 -13 2 -35 17 -48 31 -21
23 -24 36 -24 100 l0 73 380 0 c477 -1 443 -14 455 175 7 113 -6 218 -35 274
-28 55 -98 121 -160 150 -54 25 -61 25 -295 28 -132 1 -265 -3 -294 -8z m526
-225 c34 -25 52 -72 52 -136 l1 -48 -315 0 -315 0 0 68 c0 77 15 106 64 128
24 11 80 14 258 12 212 -3 228 -4 255 -24z"/>
<path d="M5442 1862 l-30 -28 -7 -204 c-4 -113 -5 -321 -3 -463 l3 -259 33
-29 c46 -41 99 -40 141 2 l31 31 0 384 0 384 283 0 c254 -1 284 -2 303 -18 43
-36 44 -47 44 -392 0 -371 2 -384 66 -415 36 -17 61 -14 100 12 43 28 45 51
42 434 l-3 365 -35 58 c-20 34 -56 75 -86 97 -89 68 -95 69 -494 69 l-358 0
-30 -28z"/>
<path d="M6911 1880 c-89 -19 -182 -96 -225 -189 -20 -44 -21 -61 -21 -331 l0
-285 26 -50 c34 -63 96 -125 157 -156 46 -24 50 -24 337 -24 287 0 291 0 337
24 65 33 126 96 157 161 26 54 26 58 29 320 3 254 2 268 -19 325 -28 75 -101
154 -172 186 -50 23 -63 24 -307 26 -140 1 -275 -2 -299 -7z m522 -214 c64
-26 67 -40 67 -293 0 -197 -2 -233 -18 -263 -28 -57 -43 -60 -295 -60 -332 0
-317 -15 -317 315 0 329 -15 314 308 315 166 0 231 -3 255 -14z"/>
<path d="M8015 1884 c-40 -10 -67 -29 -81 -56 -11 -22 -14 -109 -14 -476 l0
-449 26 -26 c35 -35 82 -43 124 -22 58 30 60 45 60 450 l0 365 73 0 c79 0 108
-15 128 -67 5 -13 9 -176 9 -363 l0 -338 31 -31 c57 -58 146 -33 169 47 6 22
10 168 10 355 0 215 4 325 11 340 30 59 116 78 157 35 39 -43 42 -68 42 -414
l0 -336 29 -29 c41 -40 101 -41 141 -1 25 25 29 38 35 113 4 46 5 212 3 369
-3 284 -3 285 -29 341 -34 71 -95 133 -162 165 -98 45 -235 27 -296 -39 l-24
-26 -31 24 c-70 53 -119 67 -259 70 -73 2 -141 2 -152 -1z"/>
<path d="M9434 1862 c-52 -41 -58 -106 -16 -153 26 -29 34 -32 107 -37 l78 -5
-6 -156 c-4 -86 -7 -227 -7 -313 l0 -158 -71 0 c-65 0 -73 -2 -100 -29 -41
-41 -41 -98 0 -143 l29 -33 224 -3 c246 -4 285 2 317 47 30 42 27 84 -10 126
-30 34 -33 35 -106 35 l-75 0 3 383 c5 485 18 457 -214 457 -110 0 -136 -3
-153 -18z"/>
<path d="M10683 1870 c-90 -19 -177 -91 -224 -185 -24 -49 -24 -54 -24 -325 0
-247 2 -280 19 -325 24 -62 95 -139 161 -173 50 -27 50 -27 315 -30 170 -2
281 1 310 8 105 26 209 134 232 241 13 65 6 103 -28 134 -35 33 -69 38 -110
19 -38 -18 -58 -49 -68 -105 -3 -20 -18 -47 -32 -60 -25 -24 -28 -24 -259 -27
-349 -5 -335 -17 -335 314 0 324 -10 314 314 314 233 0 268 -6 297 -51 9 -13
19 -42 22 -64 14 -86 113 -126 171 -68 33 32 40 61 32 121 -13 95 -96 201
-190 244 -49 22 -63 23 -306 25 -140 1 -274 -2 -297 -7z"/>
</g>
</svg>
